<svg width="93" height="93" viewBox="0 0 93 93" fill="none" xmlns="http://www.w3.org/2000/svg">
<circle cx="46.5" cy="46.5" r="46.5" fill="#222831"/>
<path d="M37.2 61.432C34.824 61.432 32.772 60.982 31.044 60.082C29.316 59.182 27.966 57.886 26.994 56.194C26.058 54.466 25.59 52.432 25.59 50.092V42.208C25.59 39.832 26.058 37.798 26.994 36.106C27.966 34.414 29.316 33.118 31.044 32.218C32.772 31.318 34.824 30.868 37.2 30.868C39.576 30.868 41.628 31.318 43.356 32.218C45.084 33.118 46.416 34.414 47.352 36.106C48.324 37.798 48.81 39.814 48.81 42.154V50.092C48.81 52.432 48.324 54.466 47.352 56.194C46.416 57.886 45.084 59.182 43.356 60.082C41.628 60.982 39.576 61.432 37.2 61.432ZM37.2 57.112C39.324 57.112 40.98 56.518 42.168 55.33C43.356 54.142 43.95 52.396 43.95 50.092V42.208C43.95 39.904 43.356 38.158 42.168 36.97C40.98 35.782 39.324 35.188 37.2 35.188C35.112 35.188 33.456 35.782 32.232 36.97C31.044 38.158 30.45 39.904 30.45 42.208V50.092C30.45 52.396 31.044 54.142 32.232 55.33C33.456 56.518 35.112 57.112 37.2 57.112ZM55.7549 61.54C53.3789 61.54 51.2909 61.09 49.4909 60.19C47.7269 59.29 46.3589 57.994 45.3869 56.302C44.4149 54.574 43.9289 52.54 43.9289 50.2V42.1C43.9289 39.724 44.4149 37.69 45.3869 35.998C46.3589 34.306 47.7269 33.01 49.4909 32.11C51.2909 31.21 53.3789 30.76 55.7549 30.76C59.1749 30.76 61.9289 31.678 64.0169 33.514C66.1049 35.35 67.2029 37.852 67.3109 41.02H62.4509C62.3429 39.112 61.6949 37.654 60.5069 36.646C59.3549 35.602 57.7709 35.08 55.7549 35.08C53.6309 35.08 51.9389 35.692 50.6789 36.916C49.4189 38.104 48.7889 39.814 48.7889 42.046V50.2C48.7889 52.432 49.4189 54.16 50.6789 55.384C51.9389 56.608 53.6309 57.22 55.7549 57.22C57.7709 57.22 59.3549 56.698 60.5069 55.654C61.6949 54.61 62.3429 53.152 62.4509 51.28H67.3109C67.2029 54.448 66.1049 56.95 64.0169 58.786C61.9289 60.622 59.1749 61.54 55.7549 61.54Z" fill="#EEEEEE"/>
<circle cx="46.5" cy="46.5" r="41.5" stroke="#EEEEEE" stroke-opacity="0.5" stroke-width="2"/>
<path d="M56 46.5C56 51.7467 51.7467 56 46.5 56C41.2533 56 37 51.7467 37 46.5C37 41.2533 41.2533 37 46.5 37C51.7467 37 56 41.2533 56 46.5Z" stroke="#EEEEEE" stroke-opacity="0.5" stroke-width="2"/>
<path d="M72 46C72 60.3771 60.5657 72 46.5 72C32.4343 72 21 60.3771 21 46C21 31.6229 32.4343 20 46.5 20C60.5657 20 72 31.6229 72 46Z" stroke="#EEEEEE" stroke-opacity="0.5" stroke-width="2"/>
</svg>
