<svg width="532" height="121" viewBox="0 0 532 121" fill="none" xmlns="http://www.w3.org/2000/svg">
<rect x="2.5" y="2.5" width="527" height="115.428" fill="#EEEEEE" stroke="#222831" stroke-width="5"/>
<rect x="11" y="11" width="255" height="98" fill="#222831"/>
<mask id="path-3-inside-1_19_23" fill="white">
<path d="M266 11H521V109H266V11Z"/>
</mask>
<path d="M266 11V8.5H264.75V11H266ZM521 11H523.5V8.5H521V11ZM521 109V111.5H523.5V109H521ZM266 109H264.75V111.5H266V109ZM266 13.5H521V8.5H266V13.5ZM518.5 11V109H523.5V11H518.5ZM521 106.5H266V111.5H521V106.5ZM267.25 109V11H264.75V109H267.25Z" fill="#222831" mask="url(#path-3-inside-1_19_23)"/>
<path d="M292.88 74.28C289.6 74.28 286.907 73.5067 284.8 71.96C282.693 70.3867 281.56 68.1467 281.4 65.24H289.76C289.84 66.2267 290.133 66.9467 290.64 67.4C291.147 67.8533 291.8 68.08 292.6 68.08C293.32 68.08 293.907 67.9067 294.36 67.56C294.84 67.1867 295.08 66.68 295.08 66.04C295.08 65.2133 294.693 64.5733 293.92 64.12C293.147 63.6667 291.893 63.16 290.16 62.6C288.32 61.9867 286.827 61.4 285.68 60.84C284.56 60.2533 283.573 59.4133 282.72 58.32C281.893 57.2 281.48 55.7467 281.48 53.96C281.48 52.1467 281.933 50.6 282.84 49.32C283.747 48.0133 285 47.0267 286.6 46.36C288.2 45.6933 290.013 45.36 292.04 45.36C295.32 45.36 297.933 46.1333 299.88 47.68C301.853 49.2 302.907 51.3467 303.04 54.12H294.52C294.493 53.2667 294.227 52.6267 293.72 52.2C293.24 51.7733 292.613 51.56 291.84 51.56C291.253 51.56 290.773 51.7333 290.4 52.08C290.027 52.4267 289.84 52.92 289.84 53.56C289.84 54.0933 290.04 54.56 290.44 54.96C290.867 55.3333 291.387 55.6667 292 55.96C292.613 56.2267 293.52 56.5733 294.72 57C296.507 57.6133 297.973 58.2267 299.12 58.84C300.293 59.4267 301.293 60.2667 302.12 61.36C302.973 62.4267 303.4 63.7867 303.4 65.44C303.4 67.12 302.973 68.6267 302.12 69.96C301.293 71.2933 300.08 72.3467 298.48 73.12C296.907 73.8933 295.04 74.28 292.88 74.28ZM320.565 74.28C317.925 74.28 315.498 73.6667 313.285 72.44C311.071 71.1867 309.311 69.4667 308.005 67.28C306.725 65.0667 306.085 62.5733 306.085 59.8C306.085 57.0267 306.725 54.5467 308.005 52.36C309.311 50.1467 311.071 48.4267 313.285 47.2C315.498 45.9733 317.925 45.36 320.565 45.36C323.231 45.36 325.658 45.9733 327.845 47.2C330.058 48.4267 331.805 50.1467 333.085 52.36C334.365 54.5467 335.005 57.0267 335.005 59.8C335.005 62.5733 334.365 65.0667 333.085 67.28C331.805 69.4667 330.058 71.1867 327.845 72.44C325.631 73.6667 323.205 74.28 320.565 74.28ZM320.565 67C322.565 67 324.138 66.3467 325.285 65.04C326.458 63.7333 327.045 61.9867 327.045 59.8C327.045 57.56 326.458 55.8 325.285 54.52C324.138 53.2133 322.565 52.56 320.565 52.56C318.538 52.56 316.951 53.2133 315.805 54.52C314.658 55.8 314.085 57.56 314.085 59.8C314.085 62.0133 314.658 63.7733 315.805 65.08C316.951 66.36 318.538 67 320.565 67ZM346.369 68H355.129V74H338.529V45.8H346.369V68ZM365.858 45.8V62.16C365.858 63.68 366.204 64.8533 366.898 65.68C367.618 66.5067 368.698 66.92 370.138 66.92C371.578 66.92 372.658 66.5067 373.378 65.68C374.124 64.8267 374.498 63.6533 374.498 62.16V45.8H382.338V62.16C382.338 64.7467 381.791 66.96 380.698 68.8C379.604 70.6133 378.111 71.9867 376.218 72.92C374.351 73.8267 372.271 74.28 369.978 74.28C367.684 74.28 365.631 73.8267 363.818 72.92C362.031 71.9867 360.618 70.6133 359.578 68.8C358.564 66.9867 358.058 64.7733 358.058 62.16V45.8H365.858ZM407.894 45.8V52.04H400.374V74H392.534V52.04H385.094V45.8H407.894ZM418.635 45.8V74H410.795V45.8H418.635ZM436.619 74.28C433.979 74.28 431.553 73.6667 429.339 72.44C427.126 71.1867 425.366 69.4667 424.059 67.28C422.779 65.0667 422.139 62.5733 422.139 59.8C422.139 57.0267 422.779 54.5467 424.059 52.36C425.366 50.1467 427.126 48.4267 429.339 47.2C431.553 45.9733 433.979 45.36 436.619 45.36C439.286 45.36 441.713 45.9733 443.899 47.2C446.113 48.4267 447.859 50.1467 449.139 52.36C450.419 54.5467 451.059 57.0267 451.059 59.8C451.059 62.5733 450.419 65.0667 449.139 67.28C447.859 69.4667 446.113 71.1867 443.899 72.44C441.686 73.6667 439.259 74.28 436.619 74.28ZM436.619 67C438.619 67 440.193 66.3467 441.339 65.04C442.513 63.7333 443.099 61.9867 443.099 59.8C443.099 57.56 442.513 55.8 441.339 54.52C440.193 53.2133 438.619 52.56 436.619 52.56C434.593 52.56 433.006 53.2133 431.859 54.52C430.713 55.8 430.139 57.56 430.139 59.8C430.139 62.0133 430.713 63.7733 431.859 65.08C433.006 66.36 434.593 67 436.619 67ZM480.704 74H472.864L462.424 58.24V74H454.584V45.8H462.424L472.864 61.76V45.8H480.704V74ZM495.81 74.28C492.53 74.28 489.836 73.5067 487.73 71.96C485.623 70.3867 484.49 68.1467 484.33 65.24H492.69C492.77 66.2267 493.063 66.9467 493.57 67.4C494.076 67.8533 494.73 68.08 495.53 68.08C496.25 68.08 496.836 67.9067 497.29 67.56C497.77 67.1867 498.01 66.68 498.01 66.04C498.01 65.2133 497.623 64.5733 496.85 64.12C496.076 63.6667 494.823 63.16 493.09 62.6C491.25 61.9867 489.756 61.4 488.61 60.84C487.49 60.2533 486.503 59.4133 485.65 58.32C484.823 57.2 484.41 55.7467 484.41 53.96C484.41 52.1467 484.863 50.6 485.77 49.32C486.676 48.0133 487.93 47.0267 489.53 46.36C491.13 45.6933 492.943 45.36 494.97 45.36C498.25 45.36 500.863 46.1333 502.81 47.68C504.783 49.2 505.836 51.3467 505.97 54.12H497.45C497.423 53.2667 497.156 52.6267 496.65 52.2C496.17 51.7733 495.543 51.56 494.77 51.56C494.183 51.56 493.703 51.7333 493.33 52.08C492.956 52.4267 492.77 52.92 492.77 53.56C492.77 54.0933 492.97 54.56 493.37 54.96C493.796 55.3333 494.316 55.6667 494.93 55.96C495.543 56.2267 496.45 56.5733 497.65 57C499.436 57.6133 500.903 58.2267 502.05 58.84C503.223 59.4267 504.223 60.2667 505.05 61.36C505.903 62.4267 506.33 63.7867 506.33 65.44C506.33 67.12 505.903 68.6267 505.05 69.96C504.223 71.2933 503.01 72.3467 501.41 73.12C499.836 73.8933 497.97 74.28 495.81 74.28Z" fill="#222831"/>
<path d="M57.76 74L51.12 62.6H46.72V74H43.08V46.12H52.08C54.1867 46.12 55.96 46.48 57.4 47.2C58.8667 47.92 59.96 48.8933 60.68 50.12C61.4 51.3467 61.76 52.7467 61.76 54.32C61.76 56.24 61.2 57.9333 60.08 59.4C58.9867 60.8667 57.3333 61.84 55.12 62.32L62.12 74H57.76ZM46.72 59.68H52.08C54.0533 59.68 55.5333 59.2 56.52 58.24C57.5067 57.2533 58 55.9467 58 54.32C58 52.6667 57.5067 51.3867 56.52 50.48C55.56 49.5733 54.08 49.12 52.08 49.12H46.72V59.68ZM71.0559 46.12V74H67.4159V46.12H71.0559ZM75.8997 60.04C75.8997 57.32 76.513 54.88 77.7397 52.72C78.9664 50.5333 80.633 48.8267 82.7397 47.6C84.873 46.3733 87.233 45.76 89.8197 45.76C92.8597 45.76 95.513 46.4933 97.7797 47.96C100.046 49.4267 101.7 51.5067 102.74 54.2H98.3797C97.6064 52.52 96.4864 51.2267 95.0197 50.32C93.5797 49.4133 91.8464 48.96 89.8197 48.96C87.873 48.96 86.1264 49.4133 84.5797 50.32C83.033 51.2267 81.8197 52.52 80.9397 54.2C80.0597 55.8533 79.6197 57.8 79.6197 60.04C79.6197 62.2533 80.0597 64.2 80.9397 65.88C81.8197 67.5333 83.033 68.8133 84.5797 69.72C86.1264 70.6267 87.873 71.08 89.8197 71.08C91.8464 71.08 93.5797 70.64 95.0197 69.76C96.4864 68.8533 97.6064 67.56 98.3797 65.88H102.74C101.7 68.5467 100.046 70.6133 97.7797 72.08C95.513 73.52 92.8597 74.24 89.8197 74.24C87.233 74.24 84.873 73.64 82.7397 72.44C80.633 71.2133 78.9664 69.52 77.7397 67.36C76.513 65.2 75.8997 62.76 75.8997 60.04ZM120.798 74.28C118.211 74.28 115.851 73.68 113.718 72.48C111.585 71.2533 109.891 69.56 108.638 67.4C107.411 65.2133 106.798 62.76 106.798 60.04C106.798 57.32 107.411 54.88 108.638 52.72C109.891 50.5333 111.585 48.84 113.718 47.64C115.851 46.4133 118.211 45.8 120.798 45.8C123.411 45.8 125.785 46.4133 127.918 47.64C130.051 48.84 131.731 50.52 132.958 52.68C134.185 54.84 134.798 57.2933 134.798 60.04C134.798 62.7867 134.185 65.24 132.958 67.4C131.731 69.56 130.051 71.2533 127.918 72.48C125.785 73.68 123.411 74.28 120.798 74.28ZM120.798 71.12C122.745 71.12 124.491 70.6667 126.038 69.76C127.611 68.8533 128.838 67.56 129.718 65.88C130.625 64.2 131.078 62.2533 131.078 60.04C131.078 57.8 130.625 55.8533 129.718 54.2C128.838 52.52 127.625 51.2267 126.078 50.32C124.531 49.4133 122.771 48.96 120.798 48.96C118.825 48.96 117.065 49.4133 115.518 50.32C113.971 51.2267 112.745 52.52 111.838 54.2C110.958 55.8533 110.518 57.8 110.518 60.04C110.518 62.2533 110.958 64.2 111.838 65.88C112.745 67.56 113.971 68.8533 115.518 69.76C117.091 70.6667 118.851 71.12 120.798 71.12ZM138.243 60.04C138.243 57.32 138.857 54.88 140.083 52.72C141.31 50.5333 142.977 48.8267 145.083 47.6C147.217 46.3733 149.577 45.76 152.163 45.76C155.203 45.76 157.857 46.4933 160.123 47.96C162.39 49.4267 164.043 51.5067 165.083 54.2H160.723C159.95 52.52 158.83 51.2267 157.363 50.32C155.923 49.4133 154.19 48.96 152.163 48.96C150.217 48.96 148.47 49.4133 146.923 50.32C145.377 51.2267 144.163 52.52 143.283 54.2C142.403 55.8533 141.963 57.8 141.963 60.04C141.963 62.2533 142.403 64.2 143.283 65.88C144.163 67.5333 145.377 68.8133 146.923 69.72C148.47 70.6267 150.217 71.08 152.163 71.08C154.19 71.08 155.923 70.64 157.363 69.76C158.83 68.8533 159.95 67.56 160.723 65.88H165.083C164.043 68.5467 162.39 70.6133 160.123 72.08C157.857 73.52 155.203 74.24 152.163 74.24C149.577 74.24 147.217 73.64 145.083 72.44C142.977 71.2133 141.31 69.52 140.083 67.36C138.857 65.2 138.243 62.76 138.243 60.04ZM191.982 46.12V74H188.342V61.36H174.142V74H170.502V46.12H174.142V58.36H188.342V46.12H191.982ZM201.837 49.08V58.4H211.997V61.4H201.837V71H213.197V74H198.197V46.08H213.197V49.08H201.837ZM235.865 46.12V49.08H228.265V74H224.625V49.08H216.985V46.12H235.865Z" fill="#EEEEEE"/>
</svg>
