<svg width="479" height="112" viewBox="0 0 479 112" fill="none" xmlns="http://www.w3.org/2000/svg">
<rect x="2.5" y="2.5" width="474" height="107" fill="#222831" stroke="#EEEEEE" stroke-width="5"/>
<rect x="11" y="11" width="457" height="90" fill="#EEEEEE"/>
<path d="M73.4373 72L66.7213 59.81H64.8353V72H56.9693V39.708H70.1713C72.7166 39.708 74.8786 40.1527 76.6573 41.042C78.4666 41.9313 79.816 43.158 80.7053 44.722C81.5946 46.2553 82.0393 47.9727 82.0393 49.874C82.0393 52.0207 81.426 53.9373 80.1993 55.624C79.0033 57.3107 77.2246 58.5067 74.8633 59.212L82.3153 72H73.4373ZM64.8353 54.244H69.7113C71.1526 54.244 72.226 53.8913 72.9313 53.186C73.6673 52.4807 74.0353 51.484 74.0353 50.196C74.0353 48.9693 73.6673 48.0033 72.9313 47.298C72.226 46.5927 71.1526 46.24 69.7113 46.24H64.8353V54.244ZM114.163 39.708V72H106.297V39.708H114.163ZM137.85 55.808C137.85 52.6187 138.54 49.782 139.92 47.298C141.3 44.7833 143.216 42.836 145.67 41.456C148.154 40.0453 150.96 39.34 154.088 39.34C157.921 39.34 161.202 40.352 163.932 42.376C166.661 44.4 168.486 47.16 169.406 50.656H160.758C160.114 49.3067 159.194 48.2793 157.998 47.574C156.832 46.8687 155.498 46.516 153.996 46.516C151.573 46.516 149.61 47.3593 148.108 49.046C146.605 50.7327 145.854 52.9867 145.854 55.808C145.854 58.6293 146.605 60.8833 148.108 62.57C149.61 64.2567 151.573 65.1 153.996 65.1C155.498 65.1 156.832 64.7473 157.998 64.042C159.194 63.3367 160.114 62.3093 160.758 60.96H169.406C168.486 64.456 166.661 67.216 163.932 69.24C161.202 71.2333 157.921 72.23 154.088 72.23C150.96 72.23 148.154 71.54 145.67 70.16C143.216 68.7493 141.3 66.802 139.92 64.318C138.54 61.834 137.85 58.9973 137.85 55.808ZM208.815 72.322C205.779 72.322 202.988 71.6167 200.443 70.206C197.928 68.7953 195.919 66.8327 194.417 64.318C192.945 61.7727 192.209 58.9207 192.209 55.762C192.209 52.6033 192.945 49.7667 194.417 47.252C195.919 44.7373 197.928 42.7747 200.443 41.364C202.988 39.9533 205.779 39.248 208.815 39.248C211.851 39.248 214.626 39.9533 217.141 41.364C219.686 42.7747 221.679 44.7373 223.121 47.252C224.593 49.7667 225.329 52.6033 225.329 55.762C225.329 58.9207 224.593 61.7727 223.121 64.318C221.649 66.8327 219.655 68.7953 217.141 70.206C214.626 71.6167 211.851 72.322 208.815 72.322ZM208.815 65.146C211.391 65.146 213.445 64.2873 214.979 62.57C216.543 60.8527 217.325 58.5833 217.325 55.762C217.325 52.91 216.543 50.6407 214.979 48.954C213.445 47.2367 211.391 46.378 208.815 46.378C206.208 46.378 204.123 47.2213 202.559 48.908C201.025 50.5947 200.259 52.8793 200.259 55.762C200.259 58.614 201.025 60.8987 202.559 62.616C204.123 64.3027 206.208 65.146 208.815 65.146ZM247.691 55.808C247.691 52.6187 248.381 49.782 249.761 47.298C251.141 44.7833 253.057 42.836 255.511 41.456C257.995 40.0453 260.801 39.34 263.929 39.34C267.762 39.34 271.043 40.352 273.773 42.376C276.502 44.4 278.327 47.16 279.247 50.656H270.599C269.955 49.3067 269.035 48.2793 267.839 47.574C266.673 46.8687 265.339 46.516 263.837 46.516C261.414 46.516 259.451 47.3593 257.949 49.046C256.446 50.7327 255.695 52.9867 255.695 55.808C255.695 58.6293 256.446 60.8833 257.949 62.57C259.451 64.2567 261.414 65.1 263.837 65.1C265.339 65.1 266.673 64.7473 267.839 64.042C269.035 63.3367 269.955 62.3093 270.599 60.96H279.247C278.327 64.456 276.502 67.216 273.773 69.24C271.043 71.2333 267.762 72.23 263.929 72.23C260.801 72.23 257.995 71.54 255.511 70.16C253.057 68.7493 251.141 66.802 249.761 64.318C248.381 61.834 247.691 58.9973 247.691 55.808ZM331.352 39.708V72H323.486V58.706H311.25V72H303.384V39.708H311.25V52.358H323.486V39.708H331.352ZM364.216 46.01V52.542H374.75V58.614H364.216V65.698H376.13V72H356.35V39.708H376.13V46.01H364.216ZM423.787 39.708V46.01H415.231V72H407.365V46.01H398.809V39.708H423.787Z" fill="#222831"/>
</svg>
