<svg width="400" height="105" viewBox="0 0 400 105" fill="none" xmlns="http://www.w3.org/2000/svg">
<g clip-path="url(#clip0_17_10)">
<path d="M212.081 71.9647C209.009 71.9647 206.317 71.383 204.005 70.2194C201.74 69.0559 199.993 67.3804 198.765 65.1929C197.537 62.959 196.943 60.3294 196.983 57.3042L197.12 46.8324C197.16 43.7606 197.823 41.1311 199.108 38.9436C200.394 36.7561 202.185 35.0807 204.481 33.9171C206.823 32.7535 209.53 32.1718 212.602 32.1718C217.024 32.1718 220.569 33.3586 223.238 35.7322C225.906 38.1058 227.284 41.3404 227.369 45.4361H221.086C220.979 42.9694 220.166 41.0845 218.647 39.7813C217.175 38.4316 215.136 37.7568 212.529 37.7568C209.783 37.7568 207.585 38.548 205.935 40.1304C204.286 41.6663 203.442 43.8769 203.404 46.7625L203.267 57.3042C203.229 60.1897 204.015 62.4237 205.623 64.0062C207.231 65.5886 209.408 66.3798 212.154 66.3798C214.761 66.3798 216.817 65.7049 218.325 64.3552C219.879 63.0055 220.741 61.1206 220.913 58.7004H227.196C227.003 62.7961 225.541 66.0307 222.81 68.4043C220.079 70.778 216.503 71.9647 212.081 71.9647Z" fill="#EEEEEE"/>
<path d="M6.42327 78.0902V27.1231H22.2022C25.2276 27.1231 27.8807 27.7514 30.1615 29.0081C32.4422 30.2183 34.2109 31.9172 35.4676 34.1049C36.7244 36.2925 37.3527 38.8525 37.3527 41.7849C37.3527 45.2292 36.4451 48.1849 34.6298 50.6518C32.8611 53.1187 30.4407 54.8176 27.3687 55.7485L38.0509 78.0902H30.6502L20.8756 56.4467H12.7069V78.0902H6.42327ZM12.7069 50.7914H22.2022C24.8087 50.7914 26.9033 49.9769 28.4858 48.3478C30.0684 46.6721 30.8596 44.4845 30.8596 41.7849C30.8596 39.0387 30.0684 36.8511 28.4858 35.222C26.9033 33.5929 24.8087 32.7783 22.2022 32.7783H12.7069V50.7914ZM49.1945 78.0902V72.3652H59.5975V32.8481H49.1945V27.1231H76.424V32.8481H66.0207V72.3652H76.424V78.0902H49.1945ZM104.952 78.7884C101.88 78.7884 99.2036 78.2065 96.9229 77.0429C94.6887 75.8793 92.9433 74.2036 91.6865 72.0161C90.4764 69.782 89.8713 67.1521 89.8713 64.1267V41.0867C89.8713 38.0147 90.4764 35.3849 91.6865 33.1972C92.9433 31.0096 94.6887 29.334 96.9229 28.1703C99.2036 27.0067 101.88 26.4249 104.952 26.4249C108.024 26.4249 110.677 27.03 112.911 28.2401C115.145 29.4038 116.868 31.0794 118.078 33.2671C119.288 35.4547 119.893 38.0612 119.893 41.0867H113.609C113.609 38.2009 112.841 35.99 111.305 34.454C109.816 32.8714 107.698 32.0801 104.952 32.0801C102.206 32.0801 100.041 32.8481 98.4589 34.3841C96.9229 35.9201 96.1549 38.1311 96.1549 41.0169V64.1267C96.1549 67.0125 96.9229 69.2467 98.4589 70.8292C100.041 72.3652 102.206 73.1331 104.952 73.1331C107.698 73.1331 109.816 72.3652 111.305 70.8292C112.841 69.2467 113.609 67.0125 113.609 64.1267H119.893C119.893 67.1056 119.288 69.7121 118.078 71.9463C116.868 74.1338 115.145 75.8327 112.911 77.0429C110.677 78.2065 108.024 78.7884 104.952 78.7884ZM146.537 78.7884C143.465 78.7884 140.812 78.2065 138.577 77.0429C136.39 75.8793 134.691 74.2036 133.481 72.0161C132.317 69.782 131.735 67.1521 131.735 64.1267V41.0867C131.735 38.0147 132.317 35.3849 133.481 33.1972C134.691 31.0096 136.39 29.334 138.577 28.1703C140.812 27.0067 143.465 26.4249 146.537 26.4249C149.609 26.4249 152.239 27.0067 154.426 28.1703C156.66 29.334 158.359 31.0096 159.523 33.1972C160.733 35.3849 161.338 37.9914 161.338 41.0169V64.1267C161.338 67.1521 160.733 69.782 159.523 72.0161C158.359 74.2036 156.66 75.8793 154.426 77.0429C152.239 78.2065 149.609 78.7884 146.537 78.7884ZM146.537 73.1331C149.283 73.1331 151.377 72.3652 152.82 70.8292C154.31 69.2467 155.055 67.0125 155.055 64.1267V41.0867C155.055 38.2009 154.31 35.99 152.82 34.454C151.377 32.8714 149.283 32.0801 146.537 32.0801C143.837 32.0801 141.743 32.8714 140.253 34.454C138.764 35.99 138.019 38.2009 138.019 41.0867V64.1267C138.019 67.0125 138.764 69.2467 140.253 70.8292C141.743 72.3652 143.837 73.1331 146.537 73.1331Z" fill="#EEEEEE"/>
<path d="M253.225 78.7884C250.153 78.7884 247.476 78.2065 245.196 77.0429C242.961 75.8793 241.216 74.2036 239.959 72.0161C238.749 69.782 238.144 67.1521 238.144 64.1267V41.0867C238.144 38.0147 238.749 35.3849 239.959 33.1972C241.216 31.0096 242.961 29.334 245.196 28.1703C247.476 27.0067 250.153 26.4249 253.225 26.4249C256.297 26.4249 258.95 27.03 261.184 28.2401C263.418 29.4038 265.14 31.0794 266.351 33.2671C267.561 35.4547 268.166 38.0612 268.166 41.0867H261.882C261.882 38.2009 261.114 35.99 259.578 34.454C258.089 32.8714 255.971 32.0801 253.225 32.0801C250.479 32.0801 248.314 32.8481 246.732 34.3841C245.196 35.9201 244.428 38.1311 244.428 41.0169V64.1267C244.428 67.0125 245.196 69.2467 246.732 70.8292C248.314 72.3652 250.479 73.1331 253.225 73.1331C255.971 73.1331 258.089 72.3652 259.578 70.8292C261.114 69.2467 261.882 67.0125 261.882 64.1267H268.166C268.166 67.1056 267.561 69.7121 266.351 71.9463C265.14 74.1338 263.418 75.8327 261.184 77.0429C258.95 78.2065 256.297 78.7884 253.225 78.7884ZM280.357 78.0902V27.1231H286.641V48.9063H302.978V27.1231H309.262V78.0902H302.978V54.6314H286.641V78.0902H280.357ZM322.709 78.0902V27.1231H352.033V32.8481H328.923V48.6271H349.589V54.2823H328.923V72.3652H352.033V78.0902H322.709ZM375.395 78.0902V32.7783H361.431V27.0532H395.642V32.7783H381.679V78.0902H375.395Z" fill="#EEEEEE"/>
<path d="M187.491 72.1034C184.419 72.1034 181.766 71.5216 179.532 70.358C177.297 69.1943 175.552 67.5187 174.295 65.3311C173.085 63.0969 172.48 60.4671 172.48 57.4416V47.2481C172.48 44.1761 173.085 41.5463 174.295 39.3587C175.552 37.1711 177.297 35.4954 179.532 34.3318C181.766 33.1681 184.419 32.5863 187.491 32.5863C190.563 32.5863 193.216 33.1681 195.45 34.3318C197.684 35.4954 199.407 37.1711 200.617 39.3587C201.873 41.5463 202.502 44.1529 202.502 47.1783V57.4416C202.502 60.4671 201.873 63.0969 200.617 65.3311C199.407 67.5187 197.684 69.1943 195.45 70.358C193.216 71.5216 190.563 72.1034 187.491 72.1034ZM187.491 66.518C190.237 66.518 192.378 65.75 193.914 64.214C195.45 62.678 196.218 60.4205 196.218 57.4416V47.2481C196.218 44.2692 195.45 42.0118 193.914 40.4758C192.378 38.9398 190.237 38.1718 187.491 38.1718C184.791 38.1718 182.65 38.9398 181.068 40.4758C179.532 42.0118 178.764 44.2692 178.764 47.2481V57.4416C178.764 60.4205 179.532 62.678 181.068 64.214C182.65 65.75 184.791 66.518 187.491 66.518Z" fill="#EEEEEE"/>
<path d="M200.287 103.36C228.202 103.36 250.832 80.7302 250.832 52.8147C250.832 24.8992 228.202 2.26924 200.287 2.26924C172.371 2.26924 149.741 24.8992 149.741 52.8147C149.741 80.7302 172.371 103.36 200.287 103.36Z" stroke="#EEEEEE" stroke-opacity="0.5" stroke-width="2"/>
<path d="M200.287 64.8148C206.914 64.8148 212.287 59.4422 212.287 52.8148C212.287 46.1873 206.914 40.8148 200.287 40.8148C193.659 40.8148 188.287 46.1873 188.287 52.8148C188.287 59.4422 193.659 64.8148 200.287 64.8148Z" stroke="#EEEEEE" stroke-opacity="0.5" stroke-width="2"/>
<path d="M200.287 84.4511C217.759 84.4511 231.923 70.287 231.923 52.8148C231.923 35.3425 217.759 21.1784 200.287 21.1784C182.814 21.1784 168.65 35.3425 168.65 52.8148C168.65 70.287 182.814 84.4511 200.287 84.4511Z" stroke="#EEEEEE" stroke-opacity="0.5" stroke-width="2"/>
</g>
<defs>
<clipPath id="clip0_17_10">
<rect width="400" height="104.727" fill="white"/>
</clipPath>
</defs>
</svg>
